<svg width="19" height="19" viewBox="0 0 19 19" fill="none" xmlns="http://www.w3.org/2000/svg">
<path d="M4.67308 9.7508V6.41272C4.68299 5.75657 4.82228 5.10882 5.08296 4.5066C5.34364 3.90437 5.72059 3.3595 6.19222 2.9032C6.66384 2.44691 7.22086 2.08816 7.83137 1.84751C8.44188 1.60686 9.09388 1.48904 9.75 1.5008C10.4061 1.48904 11.0581 1.60686 11.6686 1.84751C12.2791 2.08816 12.8362 2.44691 13.3078 2.9032C13.7794 3.3595 14.1564 3.90437 14.417 4.5066C14.6777 5.10882 14.817 5.75657 14.8269 6.41272V9.7508M12.2885 16.4143C12.9617 16.4143 13.6074 16.1468 14.0834 15.6708C14.5595 15.1947 14.8269 14.549 14.8269 13.8758V11.02M12.2885 16.4143C12.2885 16.835 12.1213 17.2386 11.8238 17.5361C11.5262 17.8336 11.1227 18.0008 10.7019 18.0008H8.79808C8.3773 18.0008 7.97376 17.8336 7.67622 17.5361C7.37869 17.2386 7.21154 16.835 7.21154 16.4143C7.21154 15.9935 7.37869 15.5899 7.67622 15.2924C7.97376 14.9949 8.3773 14.8277 8.79808 14.8277H10.7019C11.1227 14.8277 11.5262 14.9949 11.8238 15.2924C12.1213 15.5899 12.2885 15.9935 12.2885 16.4143ZM2.76923 7.84695H4.03846C4.20677 7.84695 4.36819 7.91382 4.4872 8.03283C4.60622 8.15184 4.67308 8.31326 4.67308 8.48157V12.2893C4.67308 12.4576 4.60622 12.619 4.4872 12.738C4.36819 12.857 4.20677 12.9239 4.03846 12.9239H2.76923C2.43261 12.9239 2.10978 12.7902 1.87175 12.5521C1.63372 12.3141 1.5 11.9913 1.5 11.6546V9.11619C1.5 8.77956 1.63372 8.45673 1.87175 8.2187C2.10978 7.98068 2.43261 7.84695 2.76923 7.84695ZM16.7308 12.9239H15.4615C15.2932 12.9239 15.1318 12.857 15.0128 12.738C14.8938 12.619 14.8269 12.4576 14.8269 12.2893V8.48157C14.8269 8.31326 14.8938 8.15184 15.0128 8.03283C15.1318 7.91382 15.2932 7.84695 15.4615 7.84695H16.7308C17.0674 7.84695 17.3902 7.98068 17.6283 8.2187C17.8663 8.45673 18 8.77956 18 9.11619V11.6546C18 11.9913 17.8663 12.3141 17.6283 12.5521C17.3902 12.7902 17.0674 12.9239 16.7308 12.9239Z" stroke="#545454" stroke-width="1.8" stroke-linecap="round" stroke-linejoin="round"/>
</svg>
